<svg xmlns="http://www.w3.org/2000/svg" width="48" height="48" viewBox="0 0 48 48"><g transform="translate(0 -1004.362)"><circle cx="24" cy="1028.362" r="24" fill="#3a6c87"/><path fill="#2f4b6c" style="line-height:normal;text-indent:0;text-align:start;text-decoration-line:none;text-decoration-style:solid;text-decoration-color:#000;text-transform:none;block-progression:tb;isolation:auto;mix-blend-mode:normal" d="M 30.447266 11 A 0.50004994 0.50004994 0 0 0 30.119141 11.160156 C 30.119141 11.160156 28.854049 12.529141 27.585938 14.244141 C 26.951881 15.101641 26.314931 16.04755 25.828125 16.96875 C 25.341319 17.88985 24.98828 18.778622 24.988281 19.607422 C 24.988281 19.973572 25.026239 20.332161 25.097656 20.677734 C 25.118233 20.777249 25.147712 20.873263 25.173828 20.970703 C 25.194451 21.047643 25.210394 21.125617 25.234375 21.201172 C 25.263318 21.292407 25.300282 21.379664 25.333984 21.46875 C 25.360588 21.539064 25.384576 21.610791 25.414062 21.679688 C 25.451083 21.766184 25.493722 21.849458 25.535156 21.933594 C 25.571904 22.008204 25.606374 22.083598 25.646484 22.15625 C 25.699069 22.251531 25.758238 22.341873 25.816406 22.433594 C 25.847821 22.483132 25.875211 22.535534 25.908203 22.583984 C 26.092229 22.854167 26.303783 23.105044 26.533203 23.337891 C 26.542646 23.347473 26.54908 23.359626 26.558594 23.369141 L 29.033203 25.84375 L 25.085938 25.84375 L 23.845703 24.603516 L 23.808594 24.566406 C 22.876912 23.653706 21.585541 23.09375 20.166016 23.09375 L 16.310547 23.09375 L 15.470703 22.253906 A 0.50005 0.50005 0 0 0 14.970703 21.753906 L 12.234375 21.753906 L 9.5 21.753906 L 9.5 21.75 A 0.50005 0.50005 0 0 0 9 22.25 L 9 32.433594 A 0.50005 0.50005 0 0 0 9.5 32.933594 L 24.546875 47.980469 A 23.999998 23.999998 0 0 0 47.644531 27.951172 L 30.853516 11.160156 A 0.50004994 0.50004994 0 0 0 30.498047 11 A 0.50004994 0.50004994 0 0 0 30.447266 11 z " color="#000" font-family="sans-serif" font-weight="400" transform="translate(0 1004.362)" white-space="normal"/><path fill="#fff" d="m 30.447266,1015.3624 a 0.50004994,0.50004994 0 0 0 -0.328125,0.1601 c 0,0 -1.265092,1.369 -2.533203,3.084 -0.634056,0.8575 -1.271007,1.8034 -1.757813,2.7246 -0.486806,0.9211 -0.839844,1.8099 -0.839843,2.6387 0,2.974 2.474306,5.3828 5.498046,5.3828 3.023741,0 5.496094,-2.4088 5.496094,-5.3828 0,-0.8288 -0.351084,-1.7176 -0.83789,-2.6387 -0.486807,-0.9212 -1.123758,-1.8671 -1.757813,-2.7246 -1.268111,-1.715 -2.533203,-3.084 -2.533203,-3.084 a 0.50004994,0.50004994 0 0 0 -0.355469,-0.1601 0.50004994,0.50004994 0 0 0 -0.05078,0 z m 0.03906,1.2871 c 0.289544,0.3199 1.048831,1.1369 2.095704,2.5527 0.615147,0.8319 1.227638,1.744 1.677734,2.5957 0.450096,0.8517 0.722656,1.6519 0.722656,2.1719 0,2.4211 -2.000616,4.3828 -4.496094,4.3828 -2.495477,0 -4.498046,-1.9617 -4.498046,-4.3828 0,-0.52 0.27256,-1.3202 0.722656,-2.1719 0.450096,-0.8517 1.062587,-1.7638 1.677734,-2.5957 1.04693,-1.4159 1.808182,-2.2329 2.097656,-2.5527 z m 3.03125,6.6582 a 0.50004997,0.50004997 0 0 0 -0.05078,0 0.50004997,0.50004997 0 0 0 -0.470702,0.4804 c -0.08036,1.387 -1.161577,2.4829 -2.523438,2.5684 a 0.50004997,0.50004997 0 1 0 0.0625,0.998 c 1.864502,-0.117 3.350172,-1.6315 3.458985,-3.5097 a 0.50004997,0.50004997 0 0 0 -0.476563,-0.5371 z M 9.5,1026.1124 a 0.50005,0.50005 0 0 0 -0.5,0.5 l 0,10.1835 a 0.50005,0.50005 0 0 0 0.5,0.5 l 2.734375,0 2.736328,0 a 0.50005,0.50005 0 0 0 0.5,-0.5 l 0,-0.7382 9.339844,3.164 a 0.50005,0.50005 0 0 0 0.03906,0.012 c 1.087524,0.276 2.341995,0.1104 3.291015,-0.5273 l 9.671875,-5.2559 a 0.50005,0.50005 0 0 0 0.0078,0 l 0.236328,-0.1328 c 0.807105,-0.4567 1.153253,-1.4525 0.792969,-2.3047 -0.306674,-0.7254 -0.909534,-1.0561 -1.38086,-1.125 l 0,0 c -0.471325,-0.069 -0.857422,0.064 -0.857422,0.064 a 0.50005,0.50005 0 0 0 -0.04883,0.022 l -5.332031,2.4726 c 0.007,-0.068 0.02148,-0.1335 0.02148,-0.2031 0,-1.1234 -0.93062,-2.0371 -2.058593,-2.0371 l -4.439454,0 c -0.01894,-0.033 -0.04125,-0.08 -0.05859,-0.1113 -0.07935,-0.1435 -0.165294,-0.2836 -0.257813,-0.418 -0.185163,-0.269 -0.396009,-0.5198 -0.628906,-0.748 -0.931682,-0.9127 -2.223053,-1.4727 -3.642578,-1.4727 l -4.695313,0 0,-0.8398 a 0.50005,0.50005 0 0 0 -0.5,-0.5 l -2.736328,0 -2.734375,0 z m 0.4999998,1 2.2343752,0 2.236328,0 0,9.1835 -2.236328,0 -2.2343752,0 0,-9.1835 z m 5.4707032,1.3398 4.695313,0 c 1.156597,0 2.192128,0.4534 2.941406,1.1875 0.187351,0.1836 0.357469,0.384 0.50586,0.5996 0.07428,0.1079 0.14354,0.2212 0.207031,0.3359 0.0778,0.1407 0.131781,0.2266 0.173828,0.3243 l 0.128906,0.3027 0.439453,0 4.63086,0 c 0.598936,0 1.058593,0.4582 1.058593,1.0371 0,0.4343 -0.258675,0.7991 -0.640625,0.9551 l -0.0059,0 c -0.125873,0.051 -0.264538,0.08 -0.412109,0.08 l -6.955078,0 0,1 6.955078,0 c 0.201122,0 0.393711,-0.04 0.578125,-0.094 a 0.50005,0.50005 0 0 0 0.191406,-0.051 l 6.974609,-3.2343 c 0.0052,0 0.175304,-0.056 0.386719,-0.025 0.214605,0.031 0.420744,0.09 0.605469,0.5273 0.165091,0.3905 0.0164,0.8271 -0.365235,1.043 l -0.234375,0.1328 -9.707031,5.2773 a 0.50005,0.50005 0 0 0 -0.04102,0.024 c -0.6594,0.4431 -1.68346,0.5893 -2.484376,0.3867 l -0.002,0 -9.625,-3.2598 0,-6.5508 z" color="#000" font-family="sans-serif" font-weight="400" overflow="visible" white-space="normal" style="line-height:normal;text-indent:0;text-align:start;text-decoration-line:none;text-decoration-style:solid;text-decoration-color:#000;text-transform:none;block-progression:tb;isolation:auto;mix-blend-mode:normal"/></g></svg>